# xmcd
#
# Track frame offsets:
#	150
#	14128
#	25077
#	39092
#	58630
#	73516
#	87001
#
# Disc length: 1359 seconds
# Revision: 0
# Processed by: cddbd v1.5.2PL0 Copyright (c) Steve Scherf et al.
# Submitted via: dBpowerAMP V12.0
#
DISCID=4e054d07
DTITLE=Trixie Mattel - One Stone
DYEAR=2018
DGENRE=Country
TTITLE0=Little Sister
TTITLE1=Break Your Heart
TTITLE2=Soldier
TTITLE3=Red Side of the Moon
TTITLE4=Moving Parts
TTITLE5=The Well
TTITLE6=Wind Up Man
EXTD=
EXTT0=
EXTT1=
EXTT2=
EXTT3=
EXTT4=
EXTT5=
EXTT6=
PLAYORDER=
